:SAMPLES-PER-SECOND 30
:FULLY-SPECIFIED
:DEGREES
205
root  58.4646 33.0646 40.4576 -172.677 53.6984 -176.512
RightUpLeg  -14.2388 -5.71778 -6.93486
RightLeg  57.6438 0.0324073 -0.0312149
RightFoot  5.8442 0.0128926 0.124958
RightToes  -30.8807 -0.150032 -0.25804
Spine  5.13183 -1.43765 1.06581
Spine1  10.0176 -2.19031 0.426127
HEad  40.1281 17.6131 -3.38998
LeftShoulder1  0 -2.42657e-020 -4.95415e-022
LeftArm  -47.6868 19.3862 -88.1142
LeftForeArm  58.6308 -14.5044 -2.56902
LeftHand  0.32837 -9.7132 -4.23616
RightShoulder  0 2.42657e-020 1.07489e-018
RightArm  -51.0043 -9.01703 67.3416
RightForeArm  41.2932 71.5593 32.1854
RightHand  1.16888 26.3082 5.3698
LeftUpLeg  -14.4494 5.41527 -10.8455
LeftLeg  26.0666 6.21823 2.55118
LeftFoot  -11.6536 -0.143688 -1.40797
LeftToes  13.2667 2.37847e-007 4.89147e-008
206
root  59.1849 33.3597 39.7345 -171.863 51.7361 -175.862
RightUpLeg  -17.438 -3.49712 -4.96256
RightLeg  54.5723 -0.53362 -0.718565
RightFoot  2.96334 0.00873616 0.0397915
RightToes  -33.3409 -0.167591 -0.274503
Spine  4.97477 -1.98168 1.25899
Spine1  9.74231 -3.31566 0.702136
HEad  38.8994 23.2692 -4.77739
LeftShoulder1  0 -2.42657e-020 -4.95415e-022
LeftArm  -47.0117 19.8897 -87.8104
LeftForeArm  57.7091 -15.3853 -2.73695
LeftHand  0.323274 -9.83365 -4.12936
RightShoulder  0 2.42657e-020 1.07489e-018
RightArm  -50.7129 -5.61669 64.0948
RightForeArm  46.2673 73.4804 36.8139
RightHand  1.43847 26.0454 6.58523
LeftUpLeg  -11.2339 5.56077 -10.0854
LeftLeg  22.5221 4.30103 1.46319
LeftFoot  -10.1965 -0.0769735 -0.86276
LeftToes  12.7712 2.37847e-007 4.89147e-008
207
root  59.8285 33.6463 39.0467 -171.336 48.9603 -175.694
RightUpLeg  -19.7231 -2.1928 -3.93612
RightLeg  48.7383 -2.57049 -2.61468
RightFoot  2.06063 0.00809434 -0.0725019
RightToes  -29.6711 -0.141663 -0.249674
Spine  4.94952 -2.62483 1.43433
Spine1  9.71365 -4.60701 0.894411
HEad  36.8346 27.4705 -6.96288
LeftShoulder1  0 -2.42657e-020 -4.95415e-022
LeftArm  -44.8132 20.3214 -87.583
LeftForeArm  54.6969 -17.3669 -3.122
LeftHand  0.285612 -9.47807 -3.81691
RightShoulder  0 2.42657e-020 1.07489e-018
RightArm  -47.4065 -3.29767 60.9966
RightForeArm  54.6147 76.1986 46.3985
RightHand  1.36618 25.6524 6.36691
LeftUpLeg  -9.20679 4.83448 -9.32298
LeftLeg  20.9004 1.77395 0.547179
LeftFoot  -7.95675 -0.0217001 -0.312026
LeftToes  9.72423 2.37847e-007 4.89147e-008
208
root  60.4038 33.9011 38.4134 -171.193 45.8303 -175.975
RightUpLeg  -21.0687 -1.23846 -3.79648
RightLeg  40.4809 -5.42138 -4.06429
RightFoot  0.598225 0.00216686 -0.037469
RightToes  -29.5251 -0.140664 -0.248652
Spine  5.11921 -3.00041 1.53129
Spine1  10.0519 -5.37373 0.997138
HEad  34.3833 29.8477 -9.46506
LeftShoulder1  0 -2.42657e-020 -4.95415e-022
LeftArm  -41.245 19.8783 -87.1954
LeftForeArm  51.4215 -18.88 -3.42334
LeftHand  0.254762 -9.05954 -3.58754
RightShoulder  0 2.42657e-020 1.07489e-018
RightArm  -45.1899 -1.69719 59.7328
RightForeArm  73.2883 78.8036 64.1407
RightHand  1.24967 25.711 5.84334
LeftUpLeg  -8.90958 3.86792 -8.83314
LeftLeg  22.224 -0.761984 -0.258221
LeftFoot  -5.73297 0.0023294 0.0465125
LeftToes  8.75411 2.37847e-007 4.89147e-008
209
root  60.9706 34.1137 37.8836 -170.577 42.2663 -176.127
RightUpLeg  -21.9526 0.374091 -4.11726
RightLeg  30.2271 -6.77269 -3.3787
RightFoot  -2.68055 -0.000610368 0.351552
RightToes  -26.6106 -0.121292 -0.227733
Spine  5.45051 -3.44372 1.31026
Spine1  10.6863 -6.18479 0.304343
HEad  31.4075 31.833 -10.7977
LeftShoulder1  0 -2.42657e-020 -4.95415e-022
LeftArm  -39.0075 18.8228 -85.868
LeftForeArm  49.5069 -21.7178 -3.99595
LeftHand  0.241389 -8.9809 -3.44555
RightShoulder  0 2.42657e-020 1.07489e-018
RightArm  -41.9847 -0.662774 61.2492
RightForeArm  101.41 79.8848 88.9483
RightHand  1.21406 25.7315 5.6832
LeftUpLeg  -10.36 3.87079 -8.02696
LeftLeg  25.7615 -3.9708 -1.61214
LeftFoot  -3.80546 0.00885629 0.266576
LeftToes  6.24564 2.37847e-007 4.89147e-008
210
root  61.6017 34.2224 37.2599 -170.072 38.627 -176.258
RightUpLeg  -21.8679 2.71326 -5.24857
RightLeg  18.8372 -7.70996 -2.08003
RightFoot  -3.27745 0.00142906 0.427591
RightToes  -29.2913 -0.139071 -0.24701
Spine  5.82416 -3.56937 1.36521
Spine1  11.3802 -6.40852 0.18976
HEad  29.0951 32.2762 -12.007
LeftShoulder1  0 -2.42657e-020 -4.95415e-022
LeftArm  -38.6383 16.1304 -85.6605
LeftForeArm  49.3648 -20.4037 -3.72988
LeftHand  0.224495 -9.19958 -3.16211
RightShoulder  0 2.42657e-020 1.07489e-018
RightArm  -36.7171 -0.901558 62.2283
RightForeArm  131.845 78.7775 115.79
RightHand  0.767428 26.4235 3.63895
LeftUpLeg  -10.1997 4.22847 -7.15376
LeftLeg  26.8832 -6.6151 -2.83009
LeftFoot  -2.75316 0.00829016 0.344974
LeftToes  2.72723 2.37847e-007 4.89147e-008
211
root  62.2002 34.1436 36.6541 -169.539 36.1926 -176.979
RightUpLeg  -23.8702 3.26659 -6.9118
RightLeg  11.472 -7.19313 -0.978668
RightFoot  -3.38279 0.00150885 0.404586
RightToes  -31.791 -0.156446 -0.264219
Spine  5.94321 -3.25639 1.15679
Spine1  11.459 -5.82833 -0.214482
HEad  28.6878 31.8968 -12.1182
LeftShoulder1  0 -2.42657e-020 -4.95415e-022
LeftArm  -39.2677 13.6855 -85.8363
LeftForeArm  49.6405 -19.4791 -3.54487
LeftHand  0.183256 -9.07431 -2.68102
RightShoulder  0 2.42657e-020 1.07489e-018
RightArm  -28.4618 -1.97826 63.6364
RightForeArm  152.197 76.7673 130.492
RightHand  -0.366112 27.0366 -1.15298
LeftUpLeg  -9.43163 1.00262 -7.5622
LeftLeg  26.2414 -5.37483 -2.23166
LeftFoot  -3.37895 0.0106843 0.362225
LeftToes  5.5551 2.37847e-007 4.89147e-008
212
root  62.8095 33.8271 36.0895 -168.927 34.2088 -177.57
RightUpLeg  -27.7979 -1.64819 -6.12069
RightLeg  9.67893 -5.62115 -0.587187
RightFoot  -3.9291 -0.00189728 0.387841
RightToes  -37.2695 -0.197046 -0.299184
Spine  5.99574 -2.69559 0.887591
Spine1  11.3835 -4.82558 -0.555806
HEad  28.7186 30.7042 -11.1766
LeftShoulder1  0 -2.42657e-020 -4.95415e-022
LeftArm  -40.0504 10.9308 -86.134
LeftForeArm  50.952 -18.2768 -3.30586
LeftHand  0.154342 -8.52988 -2.44133
RightShoulder  0 2.42657e-020 1.07489e-018
RightArm  -19.1718 -2.34317 65.7863
RightForeArm  161.074 76.901 129.846
RightHand  -1.86404 27.5364 -7.22832
LeftUpLeg  -9.18822 -1.4985 -7.99613
LeftLeg  26.9016 -3.35553 -1.4417
LeftFoot  -5.93448 0.0214082 0.413
LeftToes  4.84752 2.37847e-007 4.89147e-008
213
root  63.396 33.3186 35.5884 -168.862 32.0197 -178.065
RightUpLeg  -32.0683 -4.90501 -5.72223
RightLeg  13.2579 -4.37154 -0.735137
RightFoot  -4.14336 -0.000820187 0.354935
RightToes  -35.9492 -0.186959 -0.291115
Spine  6.47152 -2.09503 0.624214
Spine1  12.0752 -3.72532 -1.01695
HEad  27.4315 29.0978 -10.1489
LeftShoulder1  0 -2.42657e-020 -4.95415e-022
LeftArm  -39.6621 7.90408 -86.2592
LeftForeArm  51.2672 -17.9629 -3.24407
LeftHand  0.164137 -8.53504 -2.5714
RightShoulder  0 2.42657e-020 1.07489e-018
RightArm  -10.2149 -0.497726 68.2117
RightForeArm  140.394 79.8138 97.987
RightHand  -4.17514 27.9619 -16.2919
LeftUpLeg  -10.8945 -0.71205 -8.16202
LeftLeg  32.3649 -2.83065 -1.55171
LeftFoot  -8.88902 0.0430491 0.553834
LeftToes  3.02831 2.37847e-007 4.89147e-008
214
root  63.972 32.631 35.1278 -170.098 28.9991 -178.821
RightUpLeg  -35.363 -6.39818 -6.63319
RightLeg  21.3372 -3.80564 -1.21164
RightFoot  -4.95462 0.00230432 0.430871
RightToes  -35.7137 -0.18518 -0.289652
Spine  7.88808 -1.44481 0.481007
Spine1  14.4799 -2.60916 -1.28186
HEad  24.7827 26.4301 -10.2144
LeftShoulder1  0 -2.42657e-020 -4.95415e-022
LeftArm  -35.5205 3.56539 -86.2315
LeftForeArm  49.2693 -18.6642 -3.38467
LeftHand  0.186793 -8.73391 -2.81783
RightShoulder  0 2.42657e-020 1.07489e-018
RightArm  -3.77267 4.24278 70.7092
RightForeArm  92.8643 74.7552 40.4835
RightHand  -6.53777 28.0394 -25.4036
LeftUpLeg  -15.0458 3.1235 -7.71044
LeftLeg  44.5236 -4.61813 -3.98759
LeftFoot  -9.42239 0.0879344 1.06697
LeftToes  -4.4448 2.37847e-007 4.89147e-008
215
root  64.5409 31.7985 34.774 -170.611 24.7291 -178.859
RightUpLeg  -38.2031 -6.90969 -7.45799
RightLeg  30.2654 -1.74682 -0.882761
RightFoot  -3.37963 -0.00405945 0.239997
RightToes  -40.4373 -0.221986 -0.317579
Spine  9.55138 -0.569561 0.944937
Spine1  17.3532 -1.33776 0.24907
HEad  21.3287 21.3503 -10.8333
LeftShoulder1  0 -2.42657e-020 -4.95415e-022
LeftArm  -29.0255 -2.20674 -87.3586
LeftForeArm  48.8766 -19.5382 -3.55791
LeftHand  0.185011 -9.21915 -2.66632
RightShoulder  0 2.42657e-020 1.07489e-018
RightArm  -2.3694 11.578 72.7402
RightForeArm  72.3579 57.4744 16.0143
RightHand  -7.70295 27.8889 -29.9765
LeftUpLeg  -23.1481 5.83021 -5.39737
LeftLeg  61.7576 -6.5343 -10.3621
LeftFoot  -3.54894 0.0235542 0.760276
LeftToes  -17.898 2.37847e-007 4.89147e-008
216
root  65.16 30.6252 34.3548 -171.154 20.2086 -178.724
RightUpLeg  -43.3678 -9.52883 -7.635
RightLeg  43.8136 1.00897 0.820229
RightFoot  -2.48438 -0.00197277 0.28665
RightToes  -42.546 -0.239135 -0.329048
Spine  12.2447 1.74095 2.29742
Spine1  22.0528 3.95965 0.791921
HEad  18.4429 15.713 -10.684
LeftShoulder1  0 -2.42657e-020 -4.95415e-022
LeftArm  -22.9023 -9.01355 -90.3194
LeftForeArm  48.5988 -21.6799 -3.98974
LeftHand  0.144826 -9.70803 -2.0767
RightShoulder  0 2.42657e-020 1.07489e-018
RightArm  -6.5065 20.0058 72.2503
RightForeArm  69.177 37.1826 7.61373
RightHand  -8.01685 28.1829 -30.831
LeftUpLeg  -32.7053 5.88212 -2.72141
LeftLeg  79.1569 -4.39301 -16.4958
LeftFoot  2.62445 0.014928 -0.651692
LeftToes  -17.1514 2.37847e-007 4.89147e-008
